<svg width="118" height="75" viewBox="0 0 118 75" fill="none" xmlns="http://www.w3.org/2000/svg">
<path d="M105.882 74.3008H105.082C104.728 74.3008 104.441 74.014 104.441 73.6605C104.441 73.3069 104.728 73.0202 105.082 73.0202H105.882C106.236 73.0202 106.522 73.3069 106.522 73.6605C106.522 74.014 106.236 74.3008 105.882 74.3008Z" fill="#EEEFEE"/>
<path d="M109.938 74.3015H109.281C108.927 74.3015 108.641 74.0148 108.641 73.6612C108.641 73.3077 108.927 73.021 109.281 73.021H109.938C112.545 73.0253 115.049 72.004 116.91 70.1778C117.163 69.9302 117.569 69.9349 117.817 70.188C118.064 70.4412 118.059 70.8471 117.806 71.0947C115.706 73.1553 112.88 74.307 109.938 74.3015Z" fill="#EEEFEE"/>
<path d="M116.725 60.5217V63.0319C116.725 66.7806 113.686 69.8194 109.937 69.8194H85.9379C85.5076 69.8181 85.0846 69.708 84.7085 69.4992L30.9591 38.7505C30.4707 38.4761 30.2972 37.8577 30.5715 37.3694C30.5768 37.3602 30.5821 37.351 30.5877 37.3418L34.4937 30.8361C34.7748 30.3555 35.3922 30.1939 35.8727 30.475C35.8742 30.4758 35.8755 30.4767 35.877 30.4775L87.193 60.5217H116.725Z" fill="white"/>
<path d="M58.2745 5.80011C58.1622 5.80011 58.0518 5.77058 57.9543 5.71432L57.606 5.51206C57.3076 5.3224 57.2194 4.92653 57.4092 4.62813C57.5878 4.34741 57.9517 4.24994 58.2465 4.40423L58.5948 4.60649C58.9011 4.78335 59.0059 5.17489 58.829 5.4812C58.7144 5.6797 58.5024 5.80181 58.2732 5.80124L58.2745 5.80011Z" fill="#EEEFEE"/>
<path d="M55.734 4.32927C55.6217 4.32927 55.5112 4.29973 55.4137 4.24347L50.6882 1.50155L49.1756 3.96689C48.9907 4.2685 48.5961 4.36314 48.2945 4.17818C47.9929 3.99323 47.8983 3.59868 48.0832 3.29708L49.9222 0.305479C50.104 0.0093299 50.4887 -0.0877561 50.7892 0.0864714L56.0553 3.13564C56.3617 3.3125 56.4665 3.70404 56.2896 4.01035C56.175 4.20885 55.9631 4.32983 55.734 4.32927Z" fill="#EEEFEE"/>
<path d="M64.0315 15.2893L62.6356 23.4727L46.9219 13.7652L51.7884 5.83789L62.674 12.1515C63.7625 12.7895 64.3119 14.0593 64.0315 15.2893Z" fill="white"/>
<path d="M54.2298 33.4615L53.8072 40.9791L36.4415 30.8107L43.4467 19.4129L49.4531 23.6135C52.6435 25.8472 54.4507 29.573 54.2298 33.4615Z" fill="#FFD2B8"/>
<path d="M116.725 55.4504V60.5218H87.1928L74.6038 53.1579L65.908 48.0609L57.8014 43.3097L53.8058 40.9789L54.2284 33.4614C54.4493 29.5729 52.6419 25.8469 49.4516 23.613L43.4453 19.4124L46.9159 13.7646L62.6297 23.4721L77.9593 16.4797C79.1166 15.9493 80.4848 16.4575 81.0154 17.6148C81.1543 17.9175 81.2258 18.247 81.225 18.58V21.8329L74.8473 26.2127L90.3433 46.716L95.3122 45.2048H106.48C112.138 45.205 116.725 49.7921 116.725 55.4504Z" fill="#FFD2B8"/>
<path d="M77.382 18.5815V21.8344L71.0043 26.2142L87.4979 48.2415L90.6214 47.2914L74.8463 26.2142L81.2241 21.8344V18.5815C81.2267 17.3084 80.1968 16.2742 78.9236 16.2716C78.5905 16.2708 78.2611 16.3423 77.9583 16.4812L76.7724 17.0215C77.1666 17.445 77.3847 18.0029 77.382 18.5815Z" fill="#FFD2B8"/>
<path d="M61.0198 24.8921L63.2302 23.8842L46.9172 13.7656L45.8594 15.4855L61.0198 24.8921Z" fill="#FFD2B8"/>
<path d="M95.3126 45.2059L90.3437 46.7171L74.8477 26.2138L81.2254 21.834L95.3126 45.2059Z" fill="white"/>
<path d="M67.8947 70.0003H1.10532C0.494683 70.0003 0 69.5525 0 69.0003C0 68.4482 0.495008 68.0003 1.10532 68.0003H67.8947C68.5053 68.0003 69 68.4482 69 69.0003C69 69.5525 68.505 70.0003 67.8947 70.0003Z" fill="white"/>
<path d="M37.9087 61.0003H1.09131C0.48841 61.0003 0 60.5525 0 60.0003C0 59.4482 0.488731 59.0003 1.09131 59.0003H37.9087C38.5116 59.0003 39 59.4482 39 60.0003C39 60.5525 38.5113 61.0003 37.9087 61.0003Z" fill="white"/>
<path d="M16.8961 52.0003H1.10393C0.494386 52.0003 0 51.5526 0 51.0002C0 50.4478 0.494386 50.0003 1.10393 50.0003H16.8961C17.5059 50.0003 18 50.4481 18 51.0002C18 51.5523 17.5056 52.0003 16.8961 52.0003Z" fill="white"/>
</svg>
