<svg width="201" height="113" viewBox="0 0 201 113" fill="none" xmlns="http://www.w3.org/2000/svg">
<path d="M11.3202 113C5.06822 113 -0.0587797 107.919 0.566455 101.698C2.57467 81.7182 9.88116 62.5596 21.824 46.2472C36.0041 26.879 55.9834 12.5296 78.8662 5.27868C101.749 -1.97223 126.346 -1.74787 149.093 5.91924C168.251 12.3767 185.258 23.8311 198.407 39.0086C202.5 43.7339 201.235 50.8403 196.124 54.4409C191.013 58.0415 183.999 56.7588 179.788 52.1377C169.495 40.8425 156.459 32.294 141.862 27.3736C123.672 21.2427 104.003 21.0633 85.7051 26.8614C67.4071 32.6596 51.4307 44.134 40.0918 59.6216C30.9917 72.0511 25.258 86.5472 23.3485 101.709C22.5673 107.912 17.5721 113 11.3202 113Z" fill="#3EC8BC"/>
</svg>
