<svg width="70" height="70" viewBox="0 0 70 70" fill="none" xmlns="http://www.w3.org/2000/svg">
<path d="M56.875 0H13.125C5.87462 0 0 5.87462 0 13.125V56.875C0 64.1254 5.87462 70 13.125 70H56.875C64.1254 70 70 64.1254 70 56.875V13.125C70 5.87462 64.1254 0 56.875 0Z" fill="#3DBCB1"/>
<path d="M56.875 0H13.125C5.87462 0 0 5.37108 0 12V52C0 58.6289 5.87462 64 13.125 64H56.875C64.1254 64 70 58.6289 70 52V12C70 5.37108 64.1254 0 56.875 0Z" fill="#88EDE4"/>
<path d="M48.4615 32.3077H21.5385L10.7692 18.8462C10.7692 18.8462 18.8461 8.07693 35 8.07693C51.1538 8.07693 59.2308 18.8462 59.2308 18.8462L48.4615 32.3077Z" fill="white"/>
<path d="M42.1991 30L46 14L35 30H42.1991Z" fill="#3EC8BC"/>
</svg>
