<svg width="122" height="84" viewBox="0 0 122 84" fill="none" xmlns="http://www.w3.org/2000/svg">
<path d="M21.8223 38.7331H0.996094L10.6082 25.917H2.59811V19.509H23.4243L13.8122 32.3251H21.8223V38.7331Z" fill="#DCC7FF"/>
<path d="M38.4734 13.1014H26.6291L32.1565 5.65589H27.5402V1.99414H39.4452L33.9179 9.43969H38.4734V13.1014Z" fill="#DCC7FF"/>
<path d="M115.029 38.5391C110.692 43.2324 104.86 45.817 98.6112 45.817C95.1583 45.817 91.924 44.9675 88.9991 43.5673C81.4494 39.953 76.183 32.3015 76.183 23.3888C76.183 17.1403 78.7676 11.3079 83.4609 6.97133C84.2042 6.2846 90.4121 0.547675 91.0046 0C88.7802 0.316131 84.1822 0.969754 80.8357 1.44566C63.5702 3.89866 50.5508 18.8425 50.5508 36.2049C50.5508 55.7443 66.3249 71.4492 85.7639 71.4492C86.8652 71.4488 87.9202 71.2553 88.9991 71.1551C104.943 69.6774 118.21 57.6576 120.554 41.1643L122 30.9954L115.029 38.5391Z" fill="#D8BFFF"/>
<path d="M120.55 41.1655L121.996 30.9965L115.025 38.5403C110.688 43.2336 104.856 45.8181 98.6072 45.8181C95.1543 45.8181 91.92 44.9686 88.9951 43.5685V71.1562C104.939 69.6785 118.206 57.6587 120.55 41.1655Z" fill="#D8BFFF"/>
<path d="M78.1429 51.9116H68.434C63.961 44.5695 55.3602 41.9165 48.7403 45.9291C47.9419 44.5612 46.9981 43.357 46 42.2387C42.5153 38.3353 37.969 36 33.1429 36C24.9126 36 17.6427 42.5224 14.959 51.9116H13.8571C6.76621 51.9116 1 59.0477 1 67.8232C1 76.5987 6.76621 84 13.8571 84H46H78.1429C85.2338 84 91 76.5987 91 67.8232C91 59.0477 85.2338 51.9116 78.1429 51.9116Z" fill="white"/>
<path d="M91 67.7308C91 58.9051 85.2338 51.7282 78.1429 51.7282H68.434C63.961 44.3441 55.3602 41.676 48.7403 45.7115C47.9419 44.3358 46.9981 43.1247 46 42V84H78.1429C85.2338 84 91 76.5564 91 67.7308Z" fill="white"/>
</svg>
